<?xml version="1.0" encoding="utf-8"?>
<!-- Generator: Adobe Illustrator 19.0.0, SVG Export Plug-In . SVG Version: 6.00 Build 0)  -->
<!DOCTYPE svg PUBLIC "-//W3C//DTD SVG 1.1//EN" "http://www.w3.org/Graphics/SVG/1.1/DTD/svg11.dtd">
<svg version="1.1" id="Layer_1" xmlns="http://www.w3.org/2000/svg" xmlns:xlink="http://www.w3.org/1999/xlink" x="0px" y="0px"
	 viewBox="0 0 236 236" enable-background="new 0 0 713 236" xml:space="preserve">
<g id="XMLID_2_">
	<path id="XMLID_33_" fill="#F9E3D2" d="M130.9,32.5c15.4-8,26.7-17.8,36.5-14.9c11.2,3.3,10.2,11.5,3,20.2
		c-6.2,7.4-4.3,29.1-2.5,39.1c2.5,13.9,3.6,15.8,15.3,28c7.2,7.5,15.3,20.9,18.8,45.5c2.2,15.7-2.2,32.5-15.5,52.2
		c-6.4,9.5-18.9,16.5-29.6,17.6c-16,1.6-32.9,0-49.2,0c-17.9,0-30.8-6.2-38.7-23.5c-9.5-20.9-15-43.7-5.7-67.1
		c8.3-21,11.2-22.1,18.2-31.4C85.9,92.2,92,84.5,91.8,77c-0.3-18.1-9-19.6,2.3-29.8C104.3,37.8,119.2,38.6,130.9,32.5z"/>
	<path id="XMLID_32_" fill="#F9E3D2" d="M91.8,93c1.5-8.3-17.1-18.9-24.5-21.2C54.7,68,42,72.3,31.4,79.6
		c-9.6,6.6-14.1,17.4-13.9,28.7c0.2,12.2,10.8,20.9,19.9,27.9c9.6,7.3,20,13.6,30,20.3c3.1-4.6,3.5-10.8,3-16.2
		c-15.4-1.3-43.3-22.9-39.7-40.5c1.8-8.8,13.6-15.3,21.9-16.4c10.9-1.4,19.2,5,27.2,11.9c2.9,2.6,6.8,7.2,8.6,9.1L91.8,93z"/>
	<path id="XMLID_31_" fill="#DC7676" d="M164.8,89.5c0,0,8.6,19,13.9,27.3c6.1,9.6,10.3,18.5,12.1,29.6c3.3,20.4-4.7,50.3-23.9,61.7
		c-9.9,5.9-20.3,0.6-31.8,0c-12.2-0.6-16.6,0.4-28.5,2.3c-12.6,2.1-23.1-6.1-28.6-16.7c-4.9-9.4-6.3-14.7-7.7-25.4
		c-2.2-15.8,0.3-30.1,3.6-39.7c2.2-6.4,8.6-16.7,12-22.6c4.8-8.4,10.8-17.6,10.8-17.6c5.5-3.4,14.4-0.2,20.1,1c8,1.7,16,4,24.2,4.6
		C143.7,94.1,154.1,95.8,164.8,89.5z"/>
	<g id="XMLID_20_">
		<path id="XMLID_30_" fill="#F79029" d="M92.6,153.6c1.9-1.4,4-2.5,6.1-3.3c2.2-0.8,4.5-1.3,6.7-1.6c2.3-0.2,4.6-0.1,6.9,0.2
			c2.3,0.4,4.5,1,6.6,1.9c2.1,0.9,4,2.3,5.8,3.8c1.7,1.4,3.3,3.1,4.7,5c1.4,1.9,2.5,3.9,3.3,6c0.8,2.2,1.3,4.4,1.5,6.7
			c0.2,2.3,0.2,4.6-0.1,6.9c-0.4,2.3-1.1,4.4-2,6.6c-0.9,2.1-2.1,4.1-3.6,5.9c-1.4,1.7-3,3.5-4.9,4.8c-1.9,1.4-4,2.5-6.1,3.3
			c-2.2,0.8-4.5,1.2-6.7,1.4c-2.3,0.2-4.6,0.3-6.9-0.1c-2.3-0.4-4.5-1.1-6.6-2c-2.1-0.9-4.1-2-6-3.5c-1.8-1.4-3.3-3.1-4.7-5.1
			c-1.4-1.9-2.6-3.9-3.4-6c-0.8-2.2-1.2-4.5-1.5-6.7c-0.2-2.3-0.1-4.6,0.3-6.9c0.4-2.3,0.8-4.6,1.7-6.7c0.9-2.1,2.3-4,3.7-5.8
			C89.1,156.7,90.7,155,92.6,153.6z"/>
		<path id="XMLID_29_" fill="#FFEFD5" d="M93.9,155.4c2.1-1.5,4.5-2.4,6.9-3.2c2.4-0.8,4.9-1.1,7.4-1.1c2.5,0,5.1,0,7.5,0.7
			c2.4,0.8,4.9,1.7,6.9,3.2c2,1.5,3.6,3.6,5.1,5.7c1.5,2.1,2.6,4.4,3.4,6.8c0.8,2.4,0.8,4.9,0.7,7.5c0,2.5,0.4,5.2-0.4,7.6
			c-0.8,2.4-1.9,4.8-3.4,6.9c-1.5,2-3.6,3.6-5.7,5.1c-2.1,1.5-4.5,2.4-6.8,3.1c-2.4,0.8-4.9,1.4-7.4,1.4c-2.5,0-5.1-0.2-7.5-1
			c-2.4-0.8-4.9-1.7-6.9-3.2c-2-1.5-4-3.3-5.5-5.4c-1.5-2.1-2-4.8-2.8-7.1c-0.8-2.4-1.3-4.9-1.3-7.4c0-2.5,0.2-5.1,1-7.5
			c0.8-2.4,2.3-4.5,3.8-6.5C90.2,159,91.8,156.9,93.9,155.4z"/>
		<path id="XMLID_28_" fill="#FBAE25" d="M90.6,186.1c1.8-0.3,14.7-8.9,14.6-10.6c0,0-15.8-2.8-17.5-2.4
			C85.9,173.4,88.7,186.5,90.6,186.1z"/>
		<path id="XMLID_27_" fill="#FBAE25" d="M106.2,174.4c-1.5-2.8-8.3-15.6-10-16.1c-1.7-0.6-9.9,10.5-8.5,11.8
			C89.1,171.4,107,176,106.2,174.4z"/>
		<path id="XMLID_26_" fill="#FBAE25" d="M118.4,192.2c-0.1-3-8.2-14.8-10.2-14.4c-2,0.3-2.8,15.3-1.6,17.9
			C107.5,197.4,118.5,195.3,118.4,192.2z"/>
		<path id="XMLID_25_" fill="#FBAE25" d="M103,194.3c1.4-1.2,4.2-15.7,3.2-16.3c-1-0.6-13.6,8.7-14.3,10.5
			C91.3,190.3,100.6,196.4,103,194.3z"/>
		<path id="XMLID_24_" fill="#FBAE25" d="M126.3,166.3c-6.2,2.7-16.1,7.4-15.8,8.6c0.2,0.7,14.5,2.7,17.3,3.6
			C131,179.5,128.7,165.2,126.3,166.3z"/>
		<path id="XMLID_23_" fill="#FBAE25" d="M110.1,176.4c-0.9,1.5,7.9,10.3,11.2,14.2c1.2,1.4,8.5-6.5,6.9-9
			C126.4,178.8,111,174.9,110.1,176.4z"/>
		<path id="XMLID_22_" fill="#FBAE25" d="M98.6,156.8c2.1,4.7,7.1,16.8,9.1,17.2c2,0.4,4.4-16.7,2.6-19
			C108.5,152.6,97.3,154,98.6,156.8z"/>
		<path id="XMLID_21_" fill="#FBAE25" d="M110.3,171.8c-0.3,1.2-0.7,1.8,0.6,1c1.4-0.8,9.4-5.1,11.2-6c1.8-0.9,5.2-3,1.9-6.7
			c-3.2-3.7-6.8-4.8-9.1-5.1c-2.3-0.3-2.4,2.3-2.6,4.2C112.2,161,110.9,169.5,110.3,171.8z"/>
	</g>
	<g id="XMLID_9_">
		<path id="XMLID_19_" fill="#F79029" d="M172.3,120.2c0.8,2,1.4,4,1.6,6c0.3,2.1,0.2,4.2,0,6.2c-0.3,2.1-0.9,4.1-1.7,6
			c-0.8,1.9-1.8,3.8-3.1,5.4c-1.3,1.6-2.9,3-4.5,4.3c-1.6,1.2-3.4,2.2-5.4,3c-2,0.8-4,1.4-6,1.7c-2.1,0.3-4.2,0.2-6.2-0.1
			c-2.1-0.3-4.1-0.8-6-1.6c-1.9-0.8-3.7-1.9-5.3-3.2c-1.6-1.3-3.1-2.7-4.4-4.4c-1.2-1.6-2.4-3.4-3.2-5.3c-0.8-2-1.3-4-1.6-6
			c-0.3-2.1-0.1-4.2,0.2-6.2c0.3-2.1,0.7-4.1,1.5-6c0.8-1.9,1.9-3.7,3.2-5.3c1.3-1.6,2.6-3.2,4.3-4.5c1.6-1.2,3.5-2.2,5.4-3
			c2-0.8,4-1.4,6-1.7c2.1-0.3,4.2-0.1,6.2,0.1c2.1,0.3,4,0.9,6,1.7c1.9,0.8,3.8,1.7,5.5,2.9c1.6,1.3,3,2.8,4.3,4.5
			C170.3,116.5,171.5,118.2,172.3,120.2z"/>
		<path id="XMLID_18_" fill="#FFEFD5" d="M170.4,120.9c0.9,2.2,1.2,4.5,1.3,6.7c0.2,2.3-0.1,4.5-0.6,6.7c-0.5,2.2-1,4.5-2.2,6.4
			c-1.2,1.9-2.5,3.9-4.3,5.4c-1.7,1.4-3.9,2.4-6.1,3.3c-2.2,0.9-4.4,1.4-6.6,1.6c-2.3,0.2-4.5-0.4-6.7-0.9c-2.2-0.5-4.6-0.8-6.6-2
			c-1.9-1.2-3.8-2.7-5.3-4.5c-1.4-1.7-2.4-3.9-3.3-6.1c-0.9-2.2-1.1-4.4-1.3-6.7c-0.2-2.3-0.2-4.6,0.3-6.8c0.5-2.2,1.3-4.4,2.5-6.4
			c1.2-1.9,2.5-3.9,4.3-5.4c1.7-1.4,3.7-2.8,5.9-3.7c2.2-0.9,4.6-0.8,6.8-0.9c2.3-0.2,4.6-0.1,6.8,0.4c2.2,0.5,4.4,1.3,6.4,2.5
			c1.9,1.2,3.4,3,4.9,4.7C168,117,169.5,118.7,170.4,120.9z"/>
		<path id="XMLID_17_" fill="#FBAE25" d="M144.1,111.5c-0.1,1.7,4.7,14.8,6.2,15.1c0,0,5.8-13.3,5.9-14.9
			C156.3,110.1,144.2,109.8,144.1,111.5z"/>
		<path id="XMLID_16_" fill="#FBAE25" d="M151.1,127.7c2.8-0.7,15.4-4,16.3-5.4c0.9-1.4-7.2-10.9-8.6-9.9
			C157.4,113.3,149.6,128,151.1,127.7z"/>
		<path id="XMLID_15_" fill="#FBAE25" d="M132.9,134.6c2.7,0.6,14.7-4.1,14.8-5.9c0.2-1.8-12.9-5.7-15.4-5.2
			C130.6,124,130.1,134,132.9,134.6z"/>
		<path id="XMLID_14_" fill="#FBAE25" d="M134.3,120.7c0.7,1.4,12.9,7,13.6,6.3c0.7-0.7-4.7-13.8-6.2-14.7
			C140.3,111.2,133,118.1,134.3,120.7z"/>
		<path id="XMLID_13_" fill="#FBAE25" d="M154,147c-1.1-6-3.1-15.7-4.2-15.7c-0.6,0-5.5,12.2-6.8,14.4
			C141.4,148.3,154.4,149.4,154,147z"/>
		<path id="XMLID_12_" fill="#FBAE25" d="M148.5,130.7c-1.1-1.1-10.7,4.8-14.8,6.8c-1.5,0.8,3.9,8.9,6.4,8
			C143,144.5,149.7,131.8,148.5,130.7z"/>
		<path id="XMLID_11_" fill="#FBAE25" d="M168.1,124.7c-4.5,0.9-16.2,2.7-17,4.4c-0.8,1.7,13.7,7.4,16.1,6.3
			C169.7,134.3,170.9,124.2,168.1,124.7z"/>
		<path id="XMLID_10_" fill="#FBAE25" d="M152.5,131.9c-1-0.5-1.4-1-1,0.4c0.4,1.4,2.5,9.3,2.9,11.1c0.4,1.7,1.5,5.2,5.4,3.1
			c3.9-2.1,5.7-5,6.4-6.9c0.7-1.9-1.6-2.6-3.1-3.1C161.6,135.8,154.4,132.8,152.5,131.9z"/>
	</g>
	<g id="XMLID_6_">
		<path id="XMLID_8_" fill="#EEBC7F" d="M99.1,110.2c-2.9,2.2-4.7,6-5.2,9.6c-0.8,5.2,1.2,11.8,4.3,16c1.3,1.7,1.7,2.4,3.8,2.4
			c2.7,0,5.2-0.7,7.8-1.2c1.2-0.2,4.4-0.3,5.3-1.2c0.9-0.9,0.8-4.4,1.2-5.8c0.7-2.9,1.5-5,3.4-7.3c1.9-2.3,4.1-3.3,2.2-6.5
			c-2.1-3.5-5.3-7.4-8.7-9.7c-2.5-1.7-5.1-1.4-7.6-0.3C102.9,107.4,101.5,108.4,99.1,110.2z"/>
		<path id="XMLID_7_" fill="#E0845F" d="M102.6,133.5c0.2-5.3,0.8-11.2,3.2-16c1.3-2.7,3.1-5.2,4.7-7.7c0.6-1,1.6-2.2,2.1-3.5
			c-2.3-1.3-4.8-1.1-7.1-0.1c-2.7,1.2-4.1,2.1-6.5,3.9c-2.9,2.2-4.7,6-5.2,9.6c-0.8,5.2,1.2,11.8,4.3,16c1.3,1.7,1.7,2.4,3.8,2.4
			c0.2,0,0.3,0,0.5,0C102.6,136.6,102.5,135,102.6,133.5z"/>
	</g>
	<g id="XMLID_3_">
		<path id="XMLID_5_" fill="#EEBC7F" d="M154,185.2c3,0.8,6.2-0.1,8.6-1.8c3.4-2.4,6-7.6,6.6-12.1c0.2-1.9,0.3-2.6-0.9-4
			c-1.6-1.9-3.6-3.3-5.4-4.8c-0.8-0.7-2.8-3-3.9-3.1c-1.1-0.1-3,1.9-4,2.4c-2.1,1.1-3.8,1.7-6.2,1.7c-2.5,0-4.4-1-5,2.1
			c-0.7,3.5-1.1,8-0.3,11.7c0.5,2.7,2.3,4.4,4.4,5.6C150.1,184,151.5,184.5,154,185.2z"/>
		<path id="XMLID_4_" fill="#E0845F" d="M165.2,169.4c-3.2,2.8-6.9,5.8-11.1,6.8c-2.3,0.6-4.8,0.8-7.2,1c-0.9,0.1-2.2,0.1-3.3,0.5
			c0.6,2.4,2.3,4,4.3,5.1c2.3,1.2,3.7,1.7,6.1,2.4c3,0.8,6.2-0.1,8.6-1.8c3.4-2.4,6-7.6,6.6-12.1c0.2-1.9,0.3-2.6-0.9-4
			c-0.1-0.1-0.2-0.2-0.3-0.3C167,167.7,166.1,168.6,165.2,169.4z"/>
	</g>
</g>


</svg>
